<svg xmlns="http://www.w3.org/2000/svg" version="1.1" xmlns:xlink="http://www.w3.org/1999/xlink" xmlns:svgjs="http://svgjs.dev/svgjs" viewBox="0 0 600 600"><path d="M282.167850889523 306.29369380757885C206.46855179246137 327.97201564595713 -255.24474056784373 213.98600541239614 -306.29369076315623 149.99999263570362C-357.34264095846873 86.01397985901066 -99.82514937941295 -55.944061014198965 -24.12585028235179 -77.62238285257787C51.573448814709366 -99.30070469095669 96.85315362389821 -44.05595117126278 147.9021038192107 19.93006160542997C198.9510540145228 83.9160743821226 357.8671499865843 284.6153719692 282.167850889523 306.29369380757885C206.46855179246137 327.97201564595713 -255.24474056784373 213.98600541239614 -306.29369076315623 149.99999263570362 " fill="url(&quot;#SvgjsLinearGradient1000&quot;)" fill-opacity="0.28"></path><defs><linearGradient id="SvgjsLinearGradient1000"><stop stop-color="hsl(205, 69%, 60%)" offset="0"></stop><stop stop-color="hsl(205, 69%, 80%)" offset="1"></stop></linearGradient></defs><path d="M736.1255854858099 653.1630678169327C660.4262863887487 674.8413896553116 198.71299402844295 560.8553794217507 147.66404383313045 496.86936664505674C96.61509363781795 432.88335386836127 354.13258521687374 290.92531299515167 429.8318843139349 269.24699115677276C505.53118341099605 247.5686693183938 550.8108882201849 302.81342283808783 601.8598384154974 366.7994356147805C652.9087886108099 430.7854483914733 811.824884582871 631.4847459785537 736.1255854858099 653.1630678169327C660.4262863887487 674.8413896553116 198.71299402844295 560.8553794217507 147.66404383313045 496.86936664505674 " fill-opacity="0.28" fill="hsl(205, 69%, 60%)" opacity="1" stroke-opacity="1" stroke-width="0" stroke="hsl(340, 45%, 30%)" transform="matrix(0.5556309015411435,-0.20223310939947117,0.20223310939947117,0.5556309015411435,147.96517236345545,210.05027173179565)"></path></svg>